<?xml version="1.0" standalone="no"?>
<!DOCTYPE svg PUBLIC "-//W3C//DTD SVG 20010904//EN"
 "http://www.w3.org/TR/2001/REC-SVG-20010904/DTD/svg10.dtd">
<svg version="1.0" xmlns="http://www.w3.org/2000/svg"
 width="3258.000000pt" height="3258.000000pt" viewBox="0 0 3258.000000 3258.000000"
 preserveAspectRatio="xMidYMid meet">
<metadata>
Created by potrace 1.11, written by Peter Selinger 2001-2013
</metadata>
<g transform="translate(0.000000,3258.000000) scale(0.100000,-0.100000)"
fill="#000000" stroke="none">
<path d="M16228 32483 c-50 -84 -322 -536 -628 -1043 -78 -129 -213 -354 -301
-500 -87 -146 -166 -276 -174 -290 -30 -49 -270 -445 -280 -462 -5 -10 -32
-55 -60 -100 -27 -46 -61 -102 -75 -125 -39 -66 -315 -525 -393 -653 -38 -63
-78 -127 -88 -142 -11 -15 -19 -29 -19 -32 0 -5 -176 -297 -188 -311 -4 -5
-11 -17 -14 -25 -4 -8 -77 -130 -162 -270 -86 -140 -160 -264 -166 -275 -5
-11 -31 -56 -59 -100 -27 -44 -87 -143 -133 -219 -105 -176 -122 -204 -184
-307 -28 -46 -131 -217 -229 -379 -98 -162 -186 -308 -196 -325 -10 -16 -28
-46 -39 -65 -11 -19 -26 -44 -33 -55 -6 -10 -23 -37 -36 -60 -14 -22 -103
-170 -199 -330 -97 -159 -182 -302 -191 -317 -25 -42 -678 -1125 -722 -1197
-21 -34 -39 -67 -39 -72 0 -5 -4 -9 -10 -9 -5 0 -10 -5 -10 -11 0 -7 -15 -35
-32 -63 -18 -28 -38 -60 -45 -71 -54 -91 -148 -247 -268 -445 -79 -129 -152
-251 -163 -270 -11 -19 -62 -105 -114 -190 -83 -137 -306 -506 -333 -552 -5
-9 -39 -66 -75 -125 -36 -59 -76 -127 -90 -150 -14 -23 -95 -158 -181 -300
-86 -142 -269 -445 -406 -673 -138 -228 -409 -678 -603 -1000 -194 -322 -358
-594 -364 -605 -6 -11 -31 -51 -54 -90 -24 -38 -48 -79 -55 -90 -7 -11 -24
-39 -39 -62 -16 -23 -28 -43 -28 -45 0 -4 -51 -89 -573 -955 -158 -263 -295
-491 -305 -508 -9 -16 -21 -34 -25 -40 -7 -9 -207 -342 -246 -408 -9 -15 -133
-221 -276 -458 -143 -237 -267 -443 -275 -457 -8 -15 -36 -61 -61 -102 -60
-97 -301 -495 -331 -547 -13 -22 -72 -122 -133 -222 -60 -100 -138 -228 -172
-284 -46 -77 -59 -105 -50 -113 7 -6 55 -36 107 -66 52 -30 205 -120 340 -200
325 -192 688 -407 725 -428 17 -10 113 -67 215 -127 271 -161 889 -527 1010
-598 58 -34 256 -151 440 -260 184 -109 349 -206 365 -215 17 -10 138 -82 270
-160 206 -123 511 -302 610 -360 17 -10 122 -72 234 -139 111 -66 205 -121
207 -121 3 0 17 -9 32 -19 21 -15 347 -208 507 -301 17 -10 104 -62 195 -115
188 -112 264 -156 660 -390 157 -92 301 -178 320 -190 45 -29 232 -139 245
-144 6 -2 26 -14 46 -27 43 -27 689 -409 739 -437 19 -11 47 -28 62 -38 14
-11 29 -19 32 -19 3 0 34 -17 68 -38 71 -44 672 -400 703 -416 11 -7 119 -70
240 -142 121 -72 432 -256 690 -409 259 -153 569 -336 690 -408 121 -71 224
-132 228 -134 4 -3 13 0 20 5 7 5 102 62 212 127 110 64 247 145 305 180 58
34 303 179 545 322 242 143 701 414 1020 603 319 189 1134 670 1810 1070 1355
800 1352 799 1545 913 74 44 149 88 165 97 17 10 149 88 294 174 145 87 276
164 290 172 14 8 42 24 61 35 19 12 184 109 365 217 182 107 429 254 550 326
121 72 234 138 250 147 17 9 53 30 80 46 97 58 816 483 1280 758 259 152 556
328 660 390 105 62 269 158 365 215 96 57 177 104 179 106 6 5 -21 52 -229
394 -112 184 -223 369 -247 410 -36 62 -279 467 -313 520 -26 42 -96 158 -110
181 -24 42 -703 1167 -722 1197 -10 15 -22 36 -28 47 -5 11 -20 37 -32 57 -20
32 -523 864 -585 967 -12 20 -28 47 -36 61 -8 14 -52 87 -98 163 -46 76 -91
150 -100 165 -9 15 -69 115 -134 222 -65 107 -126 209 -135 225 -10 17 -136
226 -281 465 -144 239 -267 445 -273 457 -6 13 -14 23 -18 23 -5 0 -8 4 -8 9
0 5 -24 48 -52 95 -29 47 -57 94 -63 104 -5 9 -48 80 -95 157 -46 77 -211 352
-367 610 -155 259 -286 475 -291 480 -4 6 -11 17 -15 25 -4 8 -17 31 -29 51
-13 21 -41 68 -64 105 -22 38 -186 310 -364 604 -177 294 -330 549 -340 565
-9 17 -47 80 -85 140 -37 61 -75 124 -85 140 -13 23 -203 339 -329 547 -9 14
-33 55 -54 90 -20 34 -47 80 -60 100 -77 129 -390 646 -398 658 -36 59 -241
400 -278 463 -25 43 -173 288 -328 545 -154 257 -318 528 -362 602 -45 74 -85
142 -90 150 -16 25 -492 813 -504 835 -7 11 -24 39 -39 62 -16 23 -28 44 -28
47 0 3 -33 59 -73 123 -40 65 -76 125 -80 133 -4 8 -21 35 -37 60 -16 25 -35
56 -42 70 -7 14 -15 27 -18 30 -3 3 -12 17 -20 32 -18 32 -86 146 -480 798
-253 418 -337 557 -385 638 -59 100 -83 138 -97 161 -9 14 -23 37 -31 51 -7
14 -146 243 -307 510 -161 267 -300 499 -310 515 -45 77 -116 195 -144 240
-18 28 -90 148 -161 267 -72 120 -133 217 -137 218 -4 0 -30 -39 -60 -87z"/>
<path d="M6323 14051 c17 -25 34 -47 39 -49 4 -2 8 -7 8 -12 0 -6 115 -173
226 -325 8 -11 70 -99 138 -195 68 -96 134 -188 146 -205 12 -16 120 -169 241
-340 121 -170 228 -321 238 -335 10 -14 39 -56 66 -95 27 -38 51 -72 54 -75 3
-3 11 -13 16 -22 6 -9 62 -89 125 -178 63 -88 180 -253 260 -365 80 -112 186
-261 235 -330 50 -69 97 -136 105 -148 22 -34 133 -190 143 -202 7 -9 298
-419 369 -520 31 -45 83 -118 213 -300 50 -70 97 -137 105 -149 8 -12 47 -67
86 -122 72 -100 325 -456 344 -484 6 -8 74 -105 153 -215 78 -111 155 -219
170 -240 15 -22 57 -80 92 -130 36 -49 77 -108 91 -129 15 -22 31 -44 36 -50
5 -6 81 -112 168 -236 87 -124 193 -272 234 -330 64 -90 345 -485 376 -530 6
-8 76 -107 156 -220 80 -113 173 -244 207 -293 34 -48 78 -109 97 -135 19 -27
91 -128 160 -226 69 -98 141 -199 160 -226 73 -101 145 -203 320 -450 100
-140 188 -264 196 -275 7 -11 116 -164 241 -340 124 -176 301 -426 393 -555
92 -129 241 -341 333 -470 91 -129 170 -239 174 -245 8 -10 114 -159 143 -201
51 -74 275 -390 280 -394 3 -3 33 -43 65 -90 75 -109 108 -154 118 -158 4 -2
7 -8 7 -12 0 -8 156 -231 377 -540 22 -30 118 -165 213 -300 96 -135 203 -286
239 -337 36 -50 154 -216 261 -367 107 -152 218 -307 245 -345 28 -38 100
-140 160 -226 61 -87 127 -179 148 -206 20 -27 37 -51 37 -54 0 -3 17 -28 38
-54 20 -27 93 -129 162 -228 68 -98 128 -182 133 -188 4 -5 40 -56 80 -112
173 -245 284 -401 313 -441 l32 -42 48 67 c26 38 64 91 84 118 20 28 70 97
111 155 40 58 77 107 81 108 5 2 8 7 8 12 0 4 71 107 158 229 86 121 236 332
332 467 96 136 190 268 208 293 33 46 319 450 603 851 84 118 169 238 189 265
30 40 373 524 515 725 17 25 198 279 401 565 203 286 376 530 384 542 8 12 56
78 105 148 82 115 138 192 325 455 36 51 70 99 75 108 6 8 15 23 22 31 7 9 39
54 72 101 33 47 76 108 96 135 31 42 160 223 195 275 6 8 131 184 278 391 417
587 573 806 818 1151 83 117 273 386 424 598 151 212 286 403 302 425 15 22
41 58 56 80 16 22 101 141 188 265 88 124 256 360 374 525 117 165 233 329
259 365 25 36 162 229 305 430 354 498 680 958 752 1059 32 46 79 112 104 147
170 241 487 688 498 702 7 9 107 150 222 312 115 162 232 327 259 365 28 39
100 140 160 225 60 85 155 218 209 295 133 187 459 646 472 665 6 8 76 106
155 217 80 112 145 205 145 208 0 5 -76 -39 -300 -173 -69 -41 -145 -86 -170
-100 -25 -14 -57 -33 -72 -43 -14 -11 -29 -19 -32 -19 -3 0 -30 -16 -60 -35
-30 -19 -58 -35 -61 -35 -3 0 -29 -15 -58 -34 -28 -18 -86 -53 -127 -76 -41
-24 -129 -76 -195 -116 -112 -67 -163 -97 -225 -131 -62 -35 -446 -263 -455
-271 -6 -5 -16 -11 -21 -13 -6 -2 -239 -139 -518 -304 -278 -165 -521 -308
-539 -319 -29 -16 -180 -104 -217 -126 -8 -5 -85 -50 -170 -101 -85 -51 -243
-144 -350 -207 -107 -63 -223 -132 -257 -154 -34 -21 -64 -38 -66 -38 -2 0
-63 -35 -135 -79 -71 -43 -136 -81 -144 -85 -7 -3 -26 -15 -43 -25 -31 -19
-170 -101 -372 -220 -312 -184 -437 -258 -461 -273 -15 -10 -36 -22 -47 -27
-11 -6 -49 -28 -85 -50 -36 -22 -96 -58 -135 -80 -38 -23 -88 -52 -110 -65
-61 -36 -316 -186 -350 -206 -16 -10 -153 -90 -303 -179 -150 -89 -294 -174
-320 -188 -26 -14 -54 -31 -62 -38 -8 -6 -69 -42 -135 -80 -66 -38 -143 -84
-172 -102 -29 -18 -54 -33 -56 -33 -3 0 -36 -19 -73 -42 -68 -41 -310 -184
-369 -218 -16 -10 -95 -56 -174 -104 -80 -47 -146 -86 -147 -86 -2 0 -51 -29
-109 -65 -59 -36 -109 -65 -111 -65 -3 0 -28 -15 -57 -33 -29 -18 -59 -36 -67
-40 -8 -4 -31 -17 -51 -30 -20 -12 -121 -71 -223 -132 -103 -60 -199 -117
-214 -126 -113 -67 -698 -413 -742 -438 -30 -17 -62 -36 -70 -41 -8 -5 -58
-35 -110 -65 -52 -31 -102 -60 -110 -65 -65 -41 -252 -150 -256 -150 -3 0 -17
-8 -32 -19 -15 -10 -78 -49 -140 -85 l-113 -67 -202 119 c-662 390 -1057 624
-1165 688 -68 41 -127 74 -133 74 -5 0 -9 5 -9 10 0 6 -4 10 -10 10 -5 0 -56
28 -112 61 -57 34 -229 136 -382 227 -154 90 -292 172 -307 181 -341 201 -778
460 -814 482 -16 10 -40 23 -53 29 -12 5 -35 18 -50 29 -23 16 -247 150 -337
201 -16 9 -131 77 -254 150 -123 73 -237 140 -252 149 -147 86 -271 160 -484
286 -137 81 -263 156 -280 165 -16 10 -115 68 -220 130 -104 62 -203 120 -220
130 -27 16 -490 289 -560 331 -16 10 -41 24 -55 32 -14 8 -94 55 -178 105 -84
51 -156 92 -159 92 -4 0 -14 6 -22 14 -9 7 -36 25 -61 38 -25 14 -125 73 -224
132 -98 58 -180 106 -182 106 -3 0 -17 9 -32 19 -15 10 -182 110 -372 221
-190 111 -369 217 -397 236 -29 19 -55 34 -57 34 -2 0 -95 54 -206 120 -110
66 -203 120 -206 120 -3 0 -17 9 -32 19 -28 20 -451 271 -456 271 -2 0 -72 42
-157 93 -85 51 -161 96 -169 100 -8 5 -32 18 -52 30 -21 12 -90 53 -155 91
-176 104 -346 205 -363 216 -8 5 -58 34 -110 65 -52 31 -102 60 -110 65 -8 5
-101 60 -207 123 l-191 113 31 -45z"/>
</g>
</svg>
